<svg version="1" xmlns="http://www.w3.org/2000/svg" width="1365.333" height="1365.333" viewBox="0 0 1024.000000 1024.000000"><path d="M482.2 63.1c-125.8 8-244.6 70.4-323.3 169.9C71.3 343.8 41.2 488 77 625.5c27.8 106.6 96.7 202 189.6 262.1 59.6 38.5 123.7 61.4 196.2 70.1 20.9 2.5 77.5 2.5 98.4 0 72.5-8.7 136.6-31.6 196.2-70.1 43.1-27.9 83.8-66.1 115.3-108.1 83.6-111.3 110.4-257.8 71.8-392-43.9-152.9-166.9-272.2-321-311.3C577.1 64.4 530 60 482.2 63.1zM456 323v95h112v-95c0-59.8.4-95 1-95 2.5 0 28.9 7.3 39.3 11C703 271.8 775 354 795.5 452.7c7.6 36.5 7.6 79.4 0 116.8C775.4 669 701 752.7 604.1 784.9 448.7 836.7 282 750.4 234.6 593.6c-13.2-43.5-15.5-95.8-6.1-140.9C249 354 321 271.8 415.7 239c10.9-3.8 36.1-10.9 39.1-11 .9 0 1.2 19.6 1.2 95z"/></svg>